<svg version="1.1" id="Layer_1" xmlns="http://www.w3.org/2000/svg" xmlns:xlink="http://www.w3.org/1999/xlink" x="0px" y="0px"
	 width="100%" viewBox="0 0 842 596" enable-background="new 0 0 842 596" xml:space="preserve">
<path fill="#FFFFFF" opacity="1.000000" stroke="none" 
	d="
M586.000000,597.000000 
	C390.666656,597.000000 195.833328,597.000000 1.000000,597.000000 
	C1.000000,398.333344 1.000000,199.666672 1.000000,1.000000 
	C281.666656,1.000000 562.333313,1.000000 843.000000,1.000000 
	C843.000000,199.666672 843.000000,398.333344 843.000000,597.000000 
	C757.500000,597.000000 672.000000,597.000000 586.000000,597.000000 
M747.267456,195.730392 
	C748.733337,197.609192 750.199219,199.488007 752.097656,201.921158 
	C743.110352,201.921158 734.859619,201.921158 726.549744,201.921158 
	C719.657776,223.879669 705.880493,239.649460 685.189941,249.534119 
	C694.297180,249.999283 703.083496,250.913513 711.604736,249.799576 
	C726.999634,247.787125 738.767334,238.979187 747.984985,226.842545 
	C758.767700,212.645111 760.999817,196.447052 757.987183,179.308075 
	C754.582642,159.939713 743.154724,146.090714 726.006165,137.792038 
	C707.079895,128.633087 687.645935,129.343445 669.149292,140.011719 
	C652.089233,149.851456 642.664368,165.210754 640.194641,184.317551 
	C638.178040,199.919907 642.161926,214.498566 651.700195,227.415665 
	C656.632812,234.095596 659.382446,235.320511 667.068909,233.525253 
	C678.520386,230.850662 687.755737,224.590134 695.355164,215.977005 
	C699.013733,211.830399 701.680481,206.808640 705.551758,201.061737 
	C696.058105,201.061737 688.348145,201.061737 680.154907,201.061737 
	C683.637573,196.037170 686.751404,191.544769 690.189392,186.429184 
	C698.624268,174.822952 707.059082,163.216721 715.903015,151.047562 
	C726.752380,166.318100 736.965637,180.693222 747.267456,195.730392 
M497.498718,413.000000 
	C503.260620,413.000000 509.022522,413.000000 515.270020,413.000000 
	C515.270020,392.589508 515.270020,372.861145 515.270020,354.219849 
	C536.278442,352.788971 556.764221,351.970795 577.114258,349.850433 
	C598.797913,347.591095 616.580627,337.186615 629.550781,319.689117 
	C641.308350,303.827301 646.731628,285.349731 647.884216,265.811157 
	C648.758179,250.996216 648.221191,236.153519 643.995239,221.713501 
	C638.371704,202.498184 628.312317,186.309830 612.450195,173.713821 
	C598.343201,162.511581 581.874695,157.922180 564.559448,156.156616 
	C550.608459,154.734100 536.523254,154.219482 522.490417,154.091034 
	C490.829315,153.801254 459.163696,154.000000 427.499908,154.000000 
	C425.742645,154.000000 423.985413,154.000000 421.928345,154.000000 
	C421.928345,201.934784 421.928345,249.182388 421.928345,296.429993 
	C421.785797,296.436493 421.643280,296.442993 421.500732,296.449463 
	C413.615021,248.961487 405.729279,201.473511 397.864960,154.114532 
	C364.948334,154.114532 332.800354,154.114532 300.156647,154.114532 
	C288.077423,198.628281 275.992279,243.163712 263.767242,288.214783 
	C258.841827,269.582550 254.140762,251.683350 249.375732,233.801178 
	C242.604752,208.391113 235.731247,183.008118 229.060165,157.571960 
	C228.242111,154.452850 226.646194,153.940903 223.816101,153.948517 
	C193.152435,154.031067 162.488464,154.000107 131.824585,154.000137 
	C130.691788,154.000153 129.558990,154.000153 128.386185,154.000153 
	C113.695930,240.424255 99.074318,326.444550 84.477196,412.320801 
	C85.865852,412.759827 86.171097,412.940613 86.476501,412.940918 
	C116.639854,412.969116 146.803314,412.951263 176.966400,413.051208 
	C179.848511,413.060730 180.766937,411.569031 180.962173,409.245544 
	C181.692291,400.556580 182.312775,391.858490 183.004578,383.166199 
	C183.670120,374.803986 184.260529,366.433594 185.086136,358.086823 
	C186.296158,345.853699 187.795242,333.648834 188.965469,321.412231 
	C189.910202,311.533752 190.550797,301.626160 191.361816,291.278473 
	C192.003021,292.297760 192.594223,292.908447 192.810623,293.631287 
	C195.742844,303.426941 198.411865,313.306488 201.557205,323.032257 
	C209.752029,348.371887 218.132217,373.651703 226.483261,398.940582 
	C228.009827,403.563354 228.480545,409.966400 231.734726,412.195312 
	C235.174454,414.551300 241.358353,412.973419 246.343857,412.986298 
	C261.149597,413.024567 275.955505,413.000000 290.833069,413.000000 
	C305.562256,367.283142 320.177795,321.918976 334.999786,275.914001 
	C338.953003,321.926910 342.855652,367.351074 346.777618,413.000000 
	C397.214966,413.000000 446.857147,413.000000 497.498718,413.000000 
M654.714966,259.002197 
	C650.857300,258.661926 652.039429,261.575378 652.037598,263.422272 
	C651.990417,312.420532 651.998291,361.418854 652.013428,410.417145 
	C652.013733,411.523376 652.206970,412.629547 652.301025,413.637451 
	C684.021606,413.637451 715.411987,413.637451 746.767334,413.637451 
	C746.767334,362.002991 746.767334,310.731445 746.767334,259.000214 
	C716.251587,259.000214 685.966248,259.000214 654.714966,259.002197 
z"/>
<path fill="#EC681B" opacity="1.000000" stroke="none" 
	d="
M496.999023,413.000000 
	C446.857147,413.000000 397.214966,413.000000 346.777618,413.000000 
	C342.855652,367.351074 338.953003,321.926910 334.999786,275.914001 
	C320.177795,321.918976 305.562256,367.283142 290.833069,413.000000 
	C275.955505,413.000000 261.149597,413.024567 246.343857,412.986298 
	C241.358353,412.973419 235.174454,414.551300 231.734726,412.195312 
	C228.480545,409.966400 228.009827,403.563354 226.483261,398.940582 
	C218.132217,373.651703 209.752029,348.371887 201.557205,323.032257 
	C198.411865,313.306488 195.742844,303.426941 192.810623,293.631287 
	C192.594223,292.908447 192.003021,292.297760 191.361816,291.278473 
	C190.550797,301.626160 189.910202,311.533752 188.965469,321.412231 
	C187.795242,333.648834 186.296158,345.853699 185.086136,358.086823 
	C184.260529,366.433594 183.670120,374.803986 183.004578,383.166199 
	C182.312775,391.858490 181.692291,400.556580 180.962173,409.245544 
	C180.766937,411.569031 179.848511,413.060730 176.966400,413.051208 
	C146.803314,412.951263 116.639854,412.969116 86.476501,412.940918 
	C86.171097,412.940613 85.865852,412.759827 84.477196,412.320801 
	C99.074318,326.444550 113.695930,240.424255 128.386185,154.000153 
	C129.558990,154.000153 130.691788,154.000153 131.824585,154.000137 
	C162.488464,154.000107 193.152435,154.031067 223.816101,153.948517 
	C226.646194,153.940903 228.242111,154.452850 229.060165,157.571960 
	C235.731247,183.008118 242.604752,208.391113 249.375732,233.801178 
	C254.140762,251.683350 258.841827,269.582550 263.767242,288.214783 
	C275.992279,243.163712 288.077423,198.628281 300.156647,154.114532 
	C332.800354,154.114532 364.948334,154.114532 397.864960,154.114532 
	C405.729279,201.473511 413.615021,248.961487 421.500732,296.449463 
	C421.643280,296.442993 421.785797,296.436493 421.928345,296.429993 
	C421.928345,249.182388 421.928345,201.934784 421.928345,154.000000 
	C423.985413,154.000000 425.742645,154.000000 427.499908,154.000000 
	C459.163696,154.000000 490.829315,153.801254 522.490417,154.091034 
	C536.523254,154.219482 550.608459,154.734100 564.559448,156.156616 
	C581.874695,157.922180 598.343201,162.511581 612.450195,173.713821 
	C628.312317,186.309830 638.371704,202.498184 643.995239,221.713501 
	C648.221191,236.153519 648.758179,250.996216 647.884216,265.811157 
	C646.731628,285.349731 641.308350,303.827301 629.550781,319.689117 
	C616.580627,337.186615 598.797913,347.591095 577.114258,349.850433 
	C556.764221,351.970795 536.278442,352.788971 515.270020,354.219849 
	C515.270020,372.861145 515.270020,392.589508 515.270020,413.000000 
	C509.022522,413.000000 503.260620,413.000000 496.999023,413.000000 
M513.000000,258.491608 
	C513.000000,262.908356 513.000000,267.325104 513.000000,271.997040 
	C520.939575,271.997040 528.294128,272.581543 535.494873,271.781555 
	C539.936340,271.288147 544.656860,269.426697 548.349548,266.873932 
	C556.221741,261.431885 556.994141,252.796326 555.840698,244.249512 
	C554.713928,235.899887 550.003174,228.911118 541.652893,227.319473 
	C532.427307,225.561005 522.770752,226.063766 513.000000,225.566299 
	C513.000000,236.934082 513.000000,247.214539 513.000000,258.491608 
z"/>
<path fill="#EC681B" opacity="1.000000" stroke="none" 
	d="
M655.197937,259.001221 
	C685.966248,259.000214 716.251587,259.000214 746.767334,259.000214 
	C746.767334,310.731445 746.767334,362.002991 746.767334,413.637451 
	C715.411987,413.637451 684.021606,413.637451 652.301025,413.637451 
	C652.206970,412.629547 652.013733,411.523376 652.013428,410.417145 
	C651.998291,361.418854 651.990417,312.420532 652.037598,263.422272 
	C652.039429,261.575378 650.857300,258.661926 655.197937,259.001221 
z"/>
<path fill="#EC681B" opacity="1.000000" stroke="none" 
	d="
M689.865234,187.052353 
	C686.751404,191.544769 683.637573,196.037170 680.154907,201.061737 
	C688.348145,201.061737 696.058105,201.061737 705.551758,201.061737 
	C701.680481,206.808640 699.013733,211.830399 695.355164,215.977005 
	C687.755737,224.590134 678.520386,230.850662 667.068909,233.525253 
	C659.382446,235.320511 656.632812,234.095596 651.700195,227.415665 
	C642.161926,214.498566 638.178040,199.919907 640.194641,184.317551 
	C642.664368,165.210754 652.089233,149.851456 669.149292,140.011719 
	C687.645935,129.343445 707.079895,128.633087 726.006165,137.792038 
	C743.154724,146.090714 754.582642,159.939713 757.987183,179.308075 
	C760.999817,196.447052 758.767700,212.645111 747.984985,226.842545 
	C738.767334,238.979187 726.999634,247.787125 711.604736,249.799576 
	C703.083496,250.913513 694.297180,249.999283 685.189941,249.534119 
	C705.880493,239.649460 719.657776,223.879669 726.549744,201.921158 
	C734.859619,201.921158 743.110352,201.921158 752.097656,201.921158 
	C750.199219,199.488007 748.733337,197.609192 747.612305,195.399414 
	C749.808228,195.349045 751.659302,195.629669 754.086121,195.997574 
	C752.020020,173.420105 746.301331,152.978699 725.460510,142.176834 
	C705.541138,131.852585 684.605774,132.807388 666.327942,146.714005 
	C651.283081,158.160782 646.485107,175.224533 645.138672,192.805588 
	C660.400513,190.842438 675.132874,188.947388 689.865234,187.052353 
z"/>
<path fill="#F4995E" opacity="1.000000" stroke="none" 
	d="
M690.027344,186.740768 
	C675.132874,188.947388 660.400513,190.842438 645.138672,192.805588 
	C646.485107,175.224533 651.283081,158.160782 666.327942,146.714005 
	C684.605774,132.807388 705.541138,131.852585 725.460510,142.176834 
	C746.301331,152.978699 752.020020,173.420105 754.086121,195.997574 
	C751.659302,195.629669 749.808228,195.349045 747.567993,195.068390 
	C736.965637,180.693222 726.752380,166.318100 715.903015,151.047562 
	C707.059082,163.216721 698.624268,174.822952 690.027344,186.740768 
z"/>
<path fill="#FFFFFF" opacity="1.000000" stroke="none" 
	d="
M513.000000,257.993286 
	C513.000000,247.214539 513.000000,236.934082 513.000000,225.566299 
	C522.770752,226.063766 532.427307,225.561005 541.652893,227.319473 
	C550.003174,228.911118 554.713928,235.899887 555.840698,244.249512 
	C556.994141,252.796326 556.221741,261.431885 548.349548,266.873932 
	C544.656860,269.426697 539.936340,271.288147 535.494873,271.781555 
	C528.294128,272.581543 520.939575,271.997040 513.000000,271.997040 
	C513.000000,267.325104 513.000000,262.908356 513.000000,257.993286 
z"/>
</svg>